<?xml version="1.0" encoding="UTF-8"?>
<svg id="Layer_1" data-name="Layer 1" xmlns="http://www.w3.org/2000/svg" viewBox="0 0 95.98 95.98">
  <defs>
    <style>
      .cls-1 {
        fill: #fff;
      }

      .cls-2 {
        fill: #273a8b;
      }

      .cls-3 {
        fill: #e49d24;
      }
    </style>
  </defs>
  <path class="cls-2" d="m91.93,57.76l-34.16,34.16c-5.4,5.4-14.15,5.4-19.55,0L4.05,57.76c-5.4-5.4-5.4-14.15,0-19.55L38.21,4.05c5.4-5.4,14.15-5.4,19.55,0l34.16,34.16"/>
  <path class="cls-2" d="m91.93,38.21c5.4,5.4,5.4,14.15,0,19.55"/>
  <g>
    <path class="cls-1" d="m55.84,23.88h-15.71c-7.71,0-13.97,6.26-13.97,13.97v20.27c0,7.7,6.26,13.97,13.97,13.97h8.68v-6.17h-8.68c-4.3,0-7.81-3.5-7.81-7.81v-20.27c0-4.3,3.5-7.81,7.81-7.81h15.71c4.3,0,7.81,3.5,7.81,7.81v11.51h6.17v-11.51c0-7.71-6.26-13.97-13.97-13.97Z"/>
    <path class="cls-3" d="m69.82,60.76v7.86c0,1.92-1.55,3.48-3.47,3.48h-7.86c-1.92,0-3.48-1.55-3.48-3.48v-7.41h-7.35c-.69,0-1.34-.2-1.89-.55-.96-.62-1.59-1.69-1.59-2.91v-7.86c0-1.92,1.55-3.48,3.48-3.48h7.86c.53,0,1.04.12,1.48.33,1.17.55,1.99,1.75,1.99,3.14v7.41h7.36c.36,0,.7.05,1.02.16h.01c1.41.44,2.43,1.75,2.43,3.31Z"/>
  </g>
</svg>