<?xml version="1.0" encoding="UTF-8"?>
<svg id="Layer_1" data-name="Layer 1" xmlns="http://www.w3.org/2000/svg" viewBox="0 0 282.52 95.98">
  <defs>
    <style>
      .cls-1 {
        fill: #fff;
      }

      .cls-2 {
        fill: #273a8b;
      }

      .cls-3 {
        fill: #e49d24;
      }
    </style>
  </defs>
  <g>
    <path class="cls-2" d="m136.6,55.1v-14.23c0-5.55-1.14-9.48-3.38-11.67-2.24-2.19-6.26-3.3-11.95-3.3h-5.16c-5.64,0-9.65,1.12-11.91,3.34-2.27,2.22-3.42,6.13-3.42,11.63v14.23c0,5.52,1.15,9.43,3.42,11.65,2.26,2.21,6.27,3.33,11.91,3.33h5.16c2.98,0,5.12-.16,6.53-.49,1.21-.28,2.21-.75,2.99-1.38l.66.7c.51.54,1.2.83,1.94.83h0c.74,0,1.43-.3,1.94-.83l.09-.09c1-1.05,1-2.69-.02-3.73l-.69-.71c.63-.85,1.1-1.89,1.39-3.09.33-1.38.5-3.45.5-6.17Zm-15.44-.52c-1.01,1.05-1,2.69.02,3.74l5.67,5.81c-.3.08-.69.16-1.21.21-.98.11-2.56.17-4.71.17h-3.54c-2.8,0-4.8-.15-5.93-.46-1.1-.3-2.05-.79-2.83-1.48-.71-.63-1.22-1.5-1.52-2.57-.31-1.13-.47-3.16-.47-6.03v-11.89c0-2.88.16-4.93.47-6.08.3-1.09.81-1.97,1.52-2.59.79-.69,1.74-1.19,2.83-1.48,1.13-.3,3.13-.46,5.93-.46h2.52c2.83,0,4.83.15,5.96.45,1.09.28,2.03.77,2.8,1.43.71.63,1.22,1.51,1.52,2.6.31,1.15.47,3.2.47,6.08v12.91c0,1.26-.04,2.46-.11,3.55-.04.56-.08,1.08-.13,1.55l-5.42-5.49c-.51-.52-1.19-.78-1.94-.8-.73,0-1.42.3-1.92.83Z"/>
    <path class="cls-2" d="m162.82,41.04c-1.83-1.84-5.02-2.77-9.48-2.77h-2c-4.44,0-7.62.93-9.44,2.77-1.82,1.84-2.74,5.05-2.74,9.55v7.05c0,4.48.93,7.69,2.75,9.52,1.83,1.84,5.01,2.77,9.48,2.77h2c4.44,0,7.62-.93,9.43-2.76,1.82-1.83,2.74-5.04,2.74-9.54v-7.05c0-4.5-.93-7.71-2.75-9.55Zm-18.01,10.54c0-4.47.66-6.14,1.21-6.76.77-.86,2.61-1.32,5.33-1.32h2c2.73,0,4.59.46,5.38,1.34.56.62,1.23,2.3,1.23,6.74v5.07c0,4.44-.68,6.13-1.25,6.76-.81.9-2.62,1.35-5.37,1.35h-2c-2.7,0-4.53-.46-5.31-1.32-.56-.62-1.22-2.29-1.22-6.78v-5.07Z"/>
    <path class="cls-2" d="m189.87,47.32v.33c0,1.35-.99,2.47-2.27,2.7h-.97c-1.13-.2-1.99-1.15-2.22-2.28-.01-.31-.02-.59-.06-.85-.15-1.59-.54-2.36-.87-2.74-.6-.68-1.85-1.02-3.69-1.02-2.2,0-3.74.6-4.68,1.84-.97,1.26-1.46,3.43-1.46,6.41v15.01c0,1.44-1.08,2.73-2.51,2.82-1.66.13-3-1.14-3-2.71v-25.75c0-1.32,1.07-2.4,2.39-2.4h.56c.66,0,1.25.26,1.69.7.44.44.7,1.03.7,1.69.54-.68,1.19-1.23,1.93-1.64,1.36-.77,3.18-1.15,5.39-1.15,3.32,0,5.7.87,7.09,2.56.1.12.19.24.29.37.93,1.37,1.49,3.39,1.69,6.09Z"/>
    <path class="cls-2" d="m235.24,38.3c-2.46,0-4.46.39-5.94,1.15-.94.48-1.76,1.16-2.46,2.02v-12.18c0-1.43-1.02-2.73-2.44-2.87-1.63-.17-3.01,1.12-3.01,2.71v37.79c0,1.46,1.18,2.64,2.64,2.64h0c1.46,0,2.64-1.18,2.64-2.64v-.25c.64.84,1.43,1.51,2.35,2.02,1.54.84,3.63,1.27,6.21,1.27,4.26,0,7.34-.94,9.14-2.8,1.79-1.85,2.71-5.05,2.71-9.49v-7.05c0-4.46-.91-7.66-2.71-9.52-1.8-1.86-4.88-2.8-9.14-2.8Zm6.2,13.31v5.07c0,4.45-.67,6.13-1.23,6.76-.8.9-2.53,1.35-5.13,1.35-2.91,0-5.03-.65-6.31-1.92-1.28-1.27-1.92-3.39-1.92-6.3v-4.85c0-2.92.65-5.05,1.92-6.33,1.27-1.28,3.4-1.92,6.31-1.92,2.61,0,4.33.45,5.13,1.35.56.63,1.23,2.32,1.23,6.78Z"/>
    <path class="cls-2" d="m198.04,55.73l20.79-.02v-5.09c0-4.5-.92-7.72-2.75-9.55-1.84-1.84-5.02-2.77-9.48-2.77h-2c-4.44,0-7.62.93-9.44,2.77-1.81,1.85-2.74,5.06-2.74,9.55v7.04c0,4.48.93,7.69,2.76,9.53,1.82,1.84,5.01,2.77,9.47,2.77h2c4,0,6.99-.77,8.88-2.27.4-.32.76-.68,1.08-1.08,1.04-1.25,1.71-2.91,2.02-4.96v-1.31c0-.2-.02-.4-.06-.58-.01-.03-.01-.07-.02-.1-.26-1.08-1.1-1.99-2.2-2.18-.07-.02-.13-.02-.2-.03-.26-.02-.53-.01-.77.03-1.29.23-2.27,1.35-2.27,2.7v.2c-.17,1.62-.67,2.75-1.51,3.39-.89.67-2.57,1.01-5.01,1.01h-2c-2.7,0-4.48-.46-5.32-1.36-.84-.92-1.26-2.86-1.26-5.76,0-.65,0-1.15.01-1.52.01-.14.01-.29.01-.42Zm.03-5.64c0-2.6.42-4.37,1.25-5.25.84-.87,2.6-1.31,5.28-1.31h2c2.69,0,4.48.44,5.33,1.31.86.88,1.29,2.65,1.29,5.25v.55h-15.14v-.55Z"/>
    <path class="cls-2" d="m281.63,57.92v.85c0,2.23-.19,4.08-.56,5.56-.36,1.42-.89,2.51-1.62,3.28-1.47,1.59-4.36,2.36-8.83,2.36-3.47,0-5.96-.85-7.35-2.51-1.4-1.66-2.08-4.51-2.08-8.69v-15.12h-1.07c-.68,0-1.3-.27-1.75-.73-.45-.44-.73-1.06-.73-1.75,0-1.36,1.11-2.47,2.47-2.47h1.07v-3.93c0-1.6,1.39-2.89,3.02-2.73,1.43.14,2.46,1.45,2.46,2.89v3.77h11.67c.69,0,1.31.27,1.75.73.45.45.73,1.07.73,1.75,0,1.37-1.1,2.47-2.47,2.47h-11.67v15.75c0,2.69.52,3.86.96,4.35.62.69,1.89,1.04,3.79,1.04s3.13-.34,3.73-1.01c.43-.47.93-1.62.93-4.39v-1.47h.02c0-1.36.99-2.48,2.28-2.71.24-.04.51-.05.77-.03.07.01.13.01.2.03,1.13.2,1.99,1.15,2.22,2.28.02.14.04.29.05.44Z"/>
    <g>
      <rect class="cls-2" x="249.65" y="38.69" width="5.45" height="30.87" rx="2.73" ry="2.73"/>
      <rect class="cls-2" x="249.65" y="26.41" width="5.45" height="6.16" rx="1.21" ry="1.21"/>
    </g>
  </g>
  <g>
    <path class="cls-2" d="m91.4,57.61l-33.64,33.64c-5.31,5.31-13.93,5.31-19.25,0L4.88,57.61c-5.31-5.31-5.31-13.93,0-19.25L38.52,4.73c5.31-5.31,13.93-5.31,19.25,0l33.64,33.64"/>
    <path class="cls-2" d="m91.4,38.36c5.31,5.31,5.31,13.93,0,19.25"/>
    <g>
      <path class="cls-1" d="m55.87,24.25h-15.47c-7.59,0-13.76,6.17-13.76,13.76v19.96c0,7.58,6.17,13.76,13.76,13.76h8.55v-6.07h-8.55c-4.24,0-7.69-3.45-7.69-7.69v-19.96c0-4.24,3.45-7.69,7.69-7.69h15.47c4.24,0,7.69,3.45,7.69,7.69v11.33h6.07v-11.33c0-7.59-6.17-13.76-13.76-13.76Z"/>
      <path class="cls-3" d="m69.63,60.57v7.73c0,1.89-1.53,3.42-3.41,3.42h-7.73c-1.89,0-3.42-1.53-3.42-3.42v-7.3h-7.24c-.68,0-1.32-.19-1.86-.55-.95-.61-1.57-1.66-1.57-2.87v-7.73c0-1.89,1.53-3.42,3.42-3.42h7.73c.52,0,1.02.12,1.46.33,1.15.55,1.95,1.72,1.95,3.1v7.3h7.25c.35,0,.69.05,1.01.16h.01c1.38.44,2.39,1.72,2.39,3.25Z"/>
    </g>
  </g>
</svg>